<?xml version="1.0" encoding="utf-8"?>
<!-- Generator: Adobe Illustrator 27.5.0, SVG Export Plug-In . SVG Version: 6.00 Build 0)  -->
<svg version="1.1" xmlns="http://www.w3.org/2000/svg" xmlns:xlink="http://www.w3.org/1999/xlink" x="0px" y="0px"
	 viewBox="0 0 500 500" style="enable-background:new 0 0 500 500;" xml:space="preserve">
<g id="BACKGROUND">
	<rect style="fill:#FFFFFF;" width="500" height="500"/>
</g>
<g id="OBJECT">
	<g>
		<path style="fill:#00235E;" d="M425.54,381.51c-9.77,31.68-20.03,54.77-20.03,54.77h-293.9c0,0-30.6-45.6-46.46-93.38
			s-9.51-111.04,30.73-143.27c16.54-13.25,24.61-19.6,30.84-26.92c8.91-10.5,14.05-23.01,34.9-60.75
			c12.56-22.72,27.29-36.29,41.09-44.35c25.11-14.68,47.09-11.08,47.09-11.08c50.63,0.79,66.73,40.89,96.76,73.91
			c22.49,24.73,55.83,44.17,77.18,81.49c7.16,12.51,12.97,27.03,16.57,44.44C448.1,294.02,437.17,343.84,425.54,381.51z"/>
		<path style="fill:#0A3575;" d="M425.54,381.51c-9.77,31.68-20.03,54.77-20.03,54.77h-293.9c0,0-30.6-45.6-46.46-93.38
			s-9.51-111.04,30.73-143.27c16.54-13.25,24.61-19.6,30.84-26.92c24.27,44.52,59.7,94.22,109.96,134.54
			C304.07,361.3,375.28,377.68,425.54,381.51z"/>
		<path style="fill:#0A3575;" d="M423.74,211.93C282.53,163.44,224.27,99.57,202.71,67.61c25.11-14.68,47.09-11.08,47.09-11.08
			c50.63,0.79,66.73,40.89,96.76,73.91C369.05,155.17,402.39,174.61,423.74,211.93z"/>
		
			<linearGradient id="SVGID_1_" gradientUnits="userSpaceOnUse" x1="339.4644" y1="98.1542" x2="339.4644" y2="145.9196" gradientTransform="matrix(-1 0 0 1 679.6543 0)">
			<stop  offset="0" style="stop-color:#4F80C1"/>
			<stop  offset="1" style="stop-color:#4F80C1;stop-opacity:0"/>
		</linearGradient>
		<path style="fill:url(#SVGID_1_);" d="M363.041,136.93h-72.133c0,0,3.877-14.414,14.122-17.96
			c10.245-3.546,18.552,1.143,20.906,6.621c0,0,5.953-18.161,22.429-18.161c14.263,0,20.906,9.949,22.983,18.256
			c0,0,16.863-4.38,18.123,11.578L363.041,136.93z"/>
		
			<linearGradient id="SVGID_00000029019449976647650330000013709915958385599155_" gradientUnits="userSpaceOnUse" x1="522.6776" y1="122.3816" x2="522.6776" y2="160.8782" gradientTransform="matrix(-1 0 0 1 679.6543 0)">
			<stop  offset="0" style="stop-color:#4F80C1"/>
			<stop  offset="1" style="stop-color:#4F80C1;stop-opacity:0"/>
		</linearGradient>
		<path style="fill:url(#SVGID_00000029019449976647650330000013709915958385599155_);" d="M175.394,153.633h-58.135
			c0,0,3.124-11.617,11.381-14.475c8.257-2.858,14.952,0.921,16.849,5.336c0,0,4.798-14.637,18.077-14.637
			c11.495,0,16.849,8.018,18.523,14.713c0,0,13.591-3.53,14.606,9.331L175.394,153.633z"/>
		
			<linearGradient id="SVGID_00000005983189485812273690000012459316524458970517_" gradientUnits="userSpaceOnUse" x1="256.793" y1="207.3846" x2="256.793" y2="245.8812" gradientTransform="matrix(-1 0 0 1 679.6543 0)">
			<stop  offset="0" style="stop-color:#4F80C1"/>
			<stop  offset="1" style="stop-color:#4F80C1;stop-opacity:0"/>
		</linearGradient>
		<path style="fill:url(#SVGID_00000005983189485812273690000012459316524458970517_);" d="M441.278,238.636h-58.135
			c0,0,3.124-11.617,11.381-14.475c8.257-2.858,14.952,0.921,16.849,5.336c0,0,4.798-14.637,18.077-14.637
			c11.495,0,16.849,8.018,18.523,14.713c0,0,13.591-3.53,14.606,9.331L441.278,238.636z"/>
		<path style="fill:#5D90FF;" d="M159.76,81.325l5.526-2.038l-5.461-1.948c-1.056-0.377-1.888-1.208-2.265-2.265l-1.948-5.461
			l-1.865,5.4c-0.37,1.073-1.208,1.919-2.277,2.3l-5.531,1.973l5.323,1.838c1.059,0.366,1.899,1.188,2.287,2.24l2.064,5.595
			l1.921-5.384C157.905,82.533,158.721,81.708,159.76,81.325z"/>
		<path style="fill:#5D90FF;" d="M361.073,93.468l4.063-1.498l-4.015-1.432c-0.777-0.277-1.388-0.888-1.665-1.665l-1.432-4.015
			l-1.371,3.97c-0.272,0.789-0.888,1.411-1.674,1.691l-4.067,1.451l3.914,1.352c0.779,0.269,1.396,0.873,1.681,1.647l1.517,4.114
			l1.412-3.959C359.709,94.356,360.309,93.75,361.073,93.468z"/>
		<path style="fill:#5D90FF;" d="M413.159,287.62l4.063-1.498l-4.015-1.432c-0.777-0.277-1.388-0.888-1.665-1.665l-1.432-4.015
			l-1.371,3.97c-0.272,0.789-0.888,1.411-1.674,1.691l-4.067,1.451l3.914,1.352c0.779,0.269,1.396,0.873,1.681,1.647l1.517,4.114
			l1.412-3.959C411.795,288.508,412.395,287.902,413.159,287.62z"/>
		<path style="fill:#FFFFFF;" d="M353.088,168.889l4.935-1.82l-4.877-1.74c-0.944-0.337-1.686-1.079-2.023-2.023l-1.74-4.877
			l-1.666,4.823c-0.331,0.958-1.079,1.714-2.034,2.055l-4.941,1.762l4.754,1.642c0.946,0.327,1.696,1.061,2.043,2l1.843,4.998
			l1.715-4.809C351.431,169.968,352.16,169.231,353.088,168.889z"/>
		<path style="fill:#5D90FF;" d="M261.669,40.714l4.935-1.82l-4.878-1.74c-0.944-0.337-1.686-1.079-2.023-2.023l-1.74-4.878
			l-1.666,4.823c-0.331,0.958-1.079,1.714-2.034,2.055l-4.94,1.762l4.754,1.642c0.946,0.327,1.696,1.061,2.043,2l1.843,4.998
			l1.715-4.809C260.012,41.793,260.741,41.057,261.669,40.714z"/>
		<path style="fill:#5D90FF;" d="M92.14,186.965l5.058-1.866l-4.999-1.783c-0.967-0.345-1.728-1.106-2.073-2.073l-1.783-4.999
			l-1.707,4.943c-0.339,0.982-1.106,1.757-2.085,2.106l-5.063,1.806l4.873,1.683c0.97,0.335,1.738,1.087,2.093,2.05l1.889,5.122
			l1.758-4.929C90.442,188.071,91.189,187.316,92.14,186.965z"/>
		
			<linearGradient id="SVGID_00000046325366937724396290000006177403674574863282_" gradientUnits="userSpaceOnUse" x1="325.3309" y1="3.4103" x2="329.6488" y2="105.8061">
			<stop  offset="0" style="stop-color:#E7B142"/>
			<stop  offset="1" style="stop-color:#FFD62A;stop-opacity:0"/>
		</linearGradient>
		<circle style="fill:url(#SVGID_00000046325366937724396290000006177403674574863282_);" cx="327.317" cy="50.515" r="25.995"/>
	</g>
	<g>
		<g>
			
				<radialGradient id="SVGID_00000176038489359760333570000016837525185089744271_" cx="250.0681" cy="258.1333" r="123.4213" gradientUnits="userSpaceOnUse">
				<stop  offset="0" style="stop-color:#313280"/>
				<stop  offset="0.1596" style="stop-color:#3B489D"/>
				<stop  offset="0.5667" style="stop-color:#537CE3"/>
				<stop  offset="0.7566" style="stop-color:#5D90FF"/>
			</radialGradient>
			<path style="fill:url(#SVGID_00000176038489359760333570000016837525185089744271_);" d="M339.078,215.572
				c-15.844-55.215-68.38-53.02-88.856-103.525c-20.476,50.505-73.357,44.755-89.201,99.97
				C137.722,293.218,184.8,404.22,184.8,404.22h65.422h65.422C315.645,404.22,362.379,296.773,339.078,215.572z"/>
			
				<radialGradient id="SVGID_00000044146852017820509980000012401094754513522825_" cx="249.9058" cy="275.6081" r="91.6993" gradientUnits="userSpaceOnUse">
				<stop  offset="0" style="stop-color:#313280"/>
				<stop  offset="0.1596" style="stop-color:#3B489D"/>
				<stop  offset="0.5667" style="stop-color:#537CE3"/>
				<stop  offset="0.7566" style="stop-color:#5D90FF"/>
			</radialGradient>
			<path style="fill:url(#SVGID_00000044146852017820509980000012401094754513522825_);" d="M316.038,243.986
				c-11.772-41.024-50.805-39.393-66.018-76.917c-15.213,37.524-54.503,33.252-66.274,74.276
				c-17.312,60.331,17.667,142.803,17.667,142.803h48.607h48.607C298.628,384.147,333.35,304.317,316.038,243.986z"/>
			
				<radialGradient id="SVGID_00000127724149483147165470000013667520229430128542_" cx="249.9058" cy="289.7219" r="66.304" gradientUnits="userSpaceOnUse">
				<stop  offset="0" style="stop-color:#313280"/>
				<stop  offset="0.1596" style="stop-color:#3B489D"/>
				<stop  offset="0.5667" style="stop-color:#537CE3"/>
				<stop  offset="0.7566" style="stop-color:#5D90FF"/>
			</radialGradient>
			<path style="fill:url(#SVGID_00000127724149483147165470000013667520229430128542_);" d="M297.724,266.857
				c-8.512-29.663-36.735-28.483-47.735-55.616c-11,27.132-39.409,24.043-47.92,53.706
				c-12.517,43.623,12.774,103.255,12.774,103.255h35.146h35.146C285.135,368.202,310.241,310.48,297.724,266.857z"/>
			<path style="fill:#5D90FF;" d="M257.121,114.273c-6.281,0-11.374-5.092-11.374-11.374c0-6.281,5.092-11.373,11.374-11.373
				c3.463,0,6.559,1.553,8.645,3.994c-2.562-4.465-7.372-7.474-12.889-7.474c-8.203,0-14.853,6.65-14.853,14.853
				c0,8.203,6.65,14.854,14.853,14.854c5.516,0,10.327-3.01,12.889-7.474C263.68,112.72,260.584,114.273,257.121,114.273z"/>
			<polygon style="fill:#5D90FF;" points="255.296,96.072 257.141,99.811 261.267,100.411 258.282,103.321 258.986,107.43 
				255.296,105.49 251.605,107.43 252.31,103.321 249.325,100.411 253.451,99.811 			"/>
		</g>
		<path style="fill:#00235E;" d="M198.59,415.848c0,0-64.428-230.434-102.412-277.514c5.472-0.739,11.018-1.646,11.874-2.384
			c1.761-1.517,1.217-6.503,1.217-6.503s1.327,4.312,3.578,5.341c2.25,1.029,7.836-1.194,9.429-2.907
			c1.593-1.713,0.451-7.207,0.451-7.207s2.012,6.108,3.301,6.021c1.289-0.087,10.668-3.052,11.282-3.922
			c0.614-0.87-1.023-5.938-1.023-5.938s3.236,5.736,4.79,5.56c1.554-0.175,12.002-2.295,10.903-4.758
			c-1.099-2.463-15.972-11.813-34.703-6.247c-5.576,1.657-10.713,4.485-15.188,7.635c0.218-0.407,0.351-0.728,0.371-0.933
			c0.226-2.314-3.612-5.543-3.612-5.543s3.938,2.201,6.276,1.39c2.338-0.81,4.841-6.276,4.81-8.615
			c-0.032-2.339-4.653-5.523-4.653-5.523s5.675,3.027,6.546,2.074c0.872-0.953,5.605-9.576,5.448-10.629
			c-0.157-1.054-4.841-3.587-4.841-3.587s6.302,1.912,7.304,0.712c1.002-1.2,7.092-9.95,4.597-10.972
			c-2.496-1.022-19.709,2.491-29.408,19.454c-5.56,9.725-6.966,21.467-7.154,29.725c-7.555-3.295-20.15-7.553-32.482-6.147
			c-19.415,2.214-29.438,16.641-29.485,19.338c-0.046,2.697,10.397,0.556,11.895,0.109c1.498-0.447,2.23-6.992,2.23-6.992
			s0.478,5.304,1.383,5.864c0.906,0.56,10.697-0.385,11.917-0.809c1.22-0.424,0.679-6.833,0.679-6.833s1.101,5.503,3.237,6.455
			c2.137,0.952,8.147,0.811,9.814-1.018c1.668-1.828,1.201-6.315,1.201-6.315s1.451,4.801,3.666,5.508
			c0.831,0.265,4.268-0.469,8.241-1.491c-6.235,3.647-13.051,8.745-17.918,15.467c-11.459,15.828-7.567,32.959-5.608,34.812
			c1.96,1.853,7.423-7.302,8.103-8.71c0.68-1.408-3.659-6.362-3.659-6.362s4.238,3.224,5.263,2.933
			c1.025-0.291,6.931-8.157,7.44-9.344c0.509-1.187-4.587-5.11-4.587-5.11s4.805,2.898,6.949,1.963
			c2.144-0.935,6.093-5.468,5.868-7.932c-0.225-2.464-3.853-5.146-3.853-5.146s4.524,2.166,6.539,1.007
			c0.989-0.569,3.723-5.584,6.253-10.546c11.497,33.896,71.934,215.068,70.765,274.569H198.59z"/>
		<g>
			<path style="fill:#9595EF;" d="M205.702,334.934l-38.9,63.582c0,0-0.7-1.299-2.019-3.413
				c-3.196-5.096-10.032-14.965-19.452-22.803c-2.796-2.323-5.817-4.466-9.032-6.262c-10.553-5.875-19.909-10.219-26.388-17.476
				c-2.28-2.563-4.211-5.48-5.709-8.968c-5.752-13.353-30.385-18.748-30.385-18.748l39.6-56.908c0,0,9.994,2.533,18.879,7.589
				c4.201,2.395,8.161,5.35,10.693,8.878c7.899,10.98,11.185,21.326,22.567,23.919c1.726,0.389,3.453,0.779,5.175,1.195
				c4.895,1.175,9.732,2.579,14.287,4.986c4.376,2.309,8.51,5.534,12.179,10.366C206.021,332.45,205.704,334.916,205.702,334.934z"
				/>
			<path style="fill:#C7C7FF;" d="M112.848,262.367c-0.716-0.361-1.547-0.287-2.278,0.105c-1.277-0.885-3.055-1.932-4.892-2.408
				l-1.049,1.699c0,0,2.339,0.967,4.423,2.389c-0.451,1.041-0.367,2.158,0.153,2.945c-0.6-0.169-1.248-0.08-1.835,0.218
				c-1.287-0.934-3.259-2.168-5.301-2.697l-1.049,1.699c0,0,2.639,1.092,4.809,2.662c-0.474,1.055-0.396,2.194,0.133,2.994
				c-0.632-0.178-1.316-0.065-1.926,0.272c-1.288-0.922-3.203-2.097-5.181-2.61l-1.049,1.699c0,0,2.584,1.07,4.741,2.613
				c-0.429,1.029-0.341,2.125,0.172,2.902c-0.628-0.177-1.308-0.067-1.915,0.266c-1.288-0.925-3.215-2.112-5.206-2.628l-1.049,1.699
				c0,0,2.6,1.076,4.76,2.626c-0.435,1.032-0.347,2.134,0.168,2.913c-0.673-0.19-1.405-0.046-2.044,0.346
				c-1.286-0.938-3.281-2.196-5.349-2.732l-1.049,1.699c0,0,2.776,1.148,4.974,2.782c-0.373,0.993-0.269,2.035,0.224,2.781
				c-0.63-0.177-1.313-0.066-1.922,0.27c-1.287-0.933-3.254-2.162-5.291-2.69l-1.049,1.699c0,0,2.672,1.106,4.848,2.691
				c-0.432,1.03-0.344,2.129,0.17,2.907c-0.667-0.188-1.391-0.049-2.026,0.335c-1.219-0.941-3.497-2.505-5.866-3.119l-1.049,1.699
				c0,0,3.226,1.334,5.477,3.173c-0.376,0.995-0.273,2.04,0.221,2.788c-0.492-0.139-1.016-0.096-1.513,0.085
				c-1.235-0.946-3.468-2.459-5.79-3.061l-1.049,1.699c0,0,2.896,1.196,5.115,2.887c-0.023,0.042-0.052,0.079-0.074,0.122
				c-0.553,1.095-0.485,2.306,0.068,3.144c-0.59-0.166-1.226-0.08-1.805,0.206c-1.246-0.948-3.445-2.425-5.734-3.018l-1.049,1.699
				c0,0,2.991,1.237,5.222,2.971c-0.487,1.061-0.41,2.212,0.122,3.018c-0.454-0.128-0.938-0.108-1.4,0.039
				c-1.231-0.944-3.476-2.473-5.812-3.078l-1.049,1.699c0,0,2.866,1.183,5.079,2.858c-0.043,0.072-0.091,0.138-0.129,0.214
				c-0.553,1.095-0.485,2.306,0.068,3.144c-0.558-0.157-1.157-0.083-1.711,0.167c-1.266-0.949-3.397-2.35-5.609-2.923l-1.049,1.699
				c0,0,2.832,1.169,5.04,2.83c-0.531,1.085-0.461,2.276,0.086,3.104c-0.559-0.157-1.158-0.083-1.712,0.168
				c-1.263-0.949-3.403-2.359-5.624-2.935l-1.049,1.699c0,0,2.847,1.175,5.057,2.842c-0.741,1.513-0.326,3.246,0.944,3.887
				c1.281,0.647,2.943-0.064,3.712-1.587c0.553-1.095,0.485-2.306-0.068-3.144c1.209,0.34,2.621-0.362,3.312-1.732
				c0.553-1.095,0.485-2.306-0.068-3.144c1.209,0.341,2.621-0.362,3.312-1.732c0.553-1.095,0.485-2.306-0.068-3.144
				c1.209,0.34,2.62-0.362,3.312-1.732c0.553-1.095,0.485-2.306-0.068-3.144c1.209,0.34,2.621-0.362,3.312-1.732
				c0.553-1.095,0.485-2.306-0.068-3.144c1.209,0.341,2.621-0.362,3.312-1.732c0.553-1.095,0.485-2.306-0.068-3.144
				c1.209,0.341,2.62-0.362,3.312-1.732c0.553-1.095,0.485-2.306-0.068-3.144c1.209,0.341,2.62-0.362,3.312-1.732
				c0.553-1.095,0.485-2.306-0.068-3.144c1.209,0.341,2.62-0.362,3.312-1.732c0.553-1.095,0.485-2.306-0.068-3.144
				c1.209,0.341,2.62-0.362,3.312-1.732c0.553-1.095,0.485-2.306-0.068-3.144c1.209,0.34,2.62-0.362,3.312-1.732
				c0.553-1.095,0.485-2.306-0.068-3.144c1.209,0.341,2.621-0.362,3.312-1.732C114.544,264.773,114.129,263.014,112.848,262.367z"/>
			<path style="fill:#C7C7FF;" d="M122.703,275.398c3.129,1.218,5.764,2.707,8.028,4.383c-2.718,13.308-7.715,33.798-16.264,56.999
				c-0.498-1.035-0.977-2.149-1.461-3.355c-4.281-10.745-17.623-14.289-17.623-14.289L122.703,275.398z"/>
			<path style="fill:#C7C7FF;" d="M182.931,321.735c-2.731,14.21-6.753,33.436-11.642,51.65l-4.511,7.226
				c-4.885-8.382-10.394-14.512-15.868-19.023c6.351-13.253,13.218-30.917,17.522-46.701c2.436,0.741,5.056,1.607,7.956,2.895
				C178.736,318.821,180.93,320.205,182.931,321.735z"/>
			<path style="fill:#B0B0EA;" d="M168.431,314.887c-4.304,15.785-11.171,33.448-17.522,46.701
				c-6.901-5.69-13.75-8.809-19.169-10.63c-8.63-2.904-13.338-5.998-17.274-14.178c8.549-23.201,13.546-43.691,16.264-56.999
				c9.915,7.285,12.833,18.055,19.485,25.317C156.239,311.672,161.589,312.791,168.431,314.887z"/>
			<path style="fill:#6767D6;" d="M131.74,350.958c5.419,1.821,12.268,4.94,19.169,10.63c-1.934,4.035-3.823,7.666-5.577,10.712
				c-2.796-2.323-5.817-4.466-9.032-6.262c-10.553-5.875-19.909-10.219-26.388-17.476c1.626-3.986,3.146-7.922,4.555-11.782
				C118.402,344.96,123.11,348.054,131.74,350.958z"/>
			<path style="fill:#6767D6;" d="M170.733,305.518c-0.646,3.015-1.418,6.149-2.302,9.368c-6.842-2.096-12.192-3.214-18.216-9.789
				c-6.652-7.262-9.57-18.032-19.485-25.317c0.643-3.188,1.164-5.955,1.567-8.255c4.201,2.395,8.161,5.35,10.693,8.878
				c7.899,10.98,11.185,21.326,22.567,23.919C167.284,304.713,169.01,305.102,170.733,305.518z"/>
			<path style="fill:#B0B0EA;" d="M195.138,335.189l-23.85,38.197c4.889-18.214,8.912-37.44,11.642-51.65
				C190.371,327.416,195.138,335.189,195.138,335.189z"/>
			<path style="fill:#6767D6;" d="M205.702,334.934l-38.9,63.582c0,0-0.7-1.299-2.019-3.413c2.297-6.778,4.476-14.165,6.505-21.718
				l23.85-38.197c0,0-4.767-7.773-12.208-13.454c0.813-4.242,1.52-8.042,2.09-11.231c4.376,2.309,8.51,5.534,12.179,10.366
				C206.021,332.45,205.704,334.916,205.702,334.934z"/>
			<path style="fill:#C7C7FF;" d="M206.81,339.599c2.127,1.422,3.933,3.296,3.933,3.296l1.157-1.787
				c-1.157-1.598-2.817-2.885-4.133-3.75c0.075-0.894-0.181-1.746-0.794-2.29c-1.097-0.975-2.882-0.603-3.986,0.83
				c-0.993,1.289-1.089,2.99-0.302,4.03c-0.989-0.173-2.133,0.297-2.926,1.328c-0.993,1.289-1.089,2.99-0.302,4.03
				c-0.989-0.173-2.133,0.297-2.926,1.328c-0.993,1.289-1.089,2.991-0.302,4.031c-0.989-0.173-2.132,0.297-2.926,1.328
				c-0.993,1.289-1.089,2.991-0.302,4.03c-0.989-0.173-2.132,0.297-2.926,1.328c-0.993,1.289-1.089,2.991-0.302,4.03
				c-0.989-0.173-2.133,0.297-2.926,1.328c-0.993,1.289-1.089,2.991-0.302,4.031c-0.989-0.173-2.133,0.297-2.926,1.328
				c-0.993,1.289-1.089,2.991-0.302,4.031c-0.989-0.173-2.133,0.297-2.927,1.328c-0.993,1.289-1.089,2.991-0.302,4.031
				c-0.989-0.173-2.132,0.297-2.926,1.328c-0.993,1.289-1.089,2.99-0.302,4.03c-0.989-0.173-2.132,0.297-2.926,1.328
				c-0.993,1.289-1.089,2.991-0.302,4.03c-0.989-0.173-2.133,0.297-2.926,1.328c-0.993,1.289-1.089,2.991-0.302,4.031
				c-0.989-0.173-2.132,0.297-2.926,1.328c-1.104,1.433-1.109,3.385-0.012,4.36c1.088,0.966,2.848,0.606,3.954-0.795
				c2.402,1.438,4.598,3.72,4.598,3.72l1.157-1.787c-1.399-1.932-3.536-3.414-4.906-4.238c0.015-0.657-0.152-1.28-0.515-1.761
				c0.977,0.171,2.103-0.288,2.896-1.293c2.395,1.438,4.581,3.709,4.581,3.709l1.157-1.787c-1.394-1.924-3.519-3.403-4.89-4.228
				c0.014-0.656-0.152-1.28-0.515-1.76c0.989,0.173,2.132-0.297,2.926-1.328c0.055-0.072,0.097-0.148,0.147-0.222
				c2.411,1.437,4.622,3.734,4.622,3.734l1.157-1.787c-1.472-2.033-3.759-3.566-5.111-4.359c-0.046-0.521-0.216-1.005-0.512-1.396
				c0.951,0.167,2.042-0.268,2.831-1.218c2.472,1.428,4.782,3.825,4.782,3.825l1.157-1.787c-1.441-1.991-3.664-3.501-5.025-4.308
				c0.038-0.697-0.132-1.362-0.516-1.869c0.989,0.173,2.132-0.297,2.926-1.328c0.031-0.041,0.054-0.085,0.084-0.127
				c2.426,1.435,4.662,3.757,4.662,3.757l1.157-1.787c-1.463-2.021-3.732-3.548-5.087-4.345c-0.027-0.57-0.193-1.105-0.513-1.528
				c0.883,0.155,1.887-0.207,2.658-1.019c2.577,1.4,5.068,3.986,5.068,3.986l1.157-1.787c-1.493-2.061-3.826-3.611-5.17-4.394
				c0.105-0.796-0.05-1.571-0.484-2.144c0.918,0.161,1.966-0.24,2.747-1.122c2.313,1.441,4.378,3.582,4.378,3.582l1.157-1.787
				c-1.283-1.772-3.186-3.164-4.55-4.018c0.071-0.749-0.093-1.471-0.503-2.013c0.881,0.154,1.883-0.205,2.653-1.013
				c2.367,1.44,4.511,3.665,4.511,3.665l1.157-1.787c-1.303-1.799-3.243-3.206-4.611-4.056c0.112-0.803-0.042-1.588-0.48-2.167
				c0.92,0.161,1.97-0.241,2.752-1.127c2.275,1.44,4.283,3.523,4.283,3.523l1.157-1.787c-1.255-1.733-3.103-3.103-4.459-3.962
				c0.069-0.746-0.096-1.465-0.504-2.004c0.917,0.161,1.963-0.239,2.744-1.118c2.267,1.439,4.264,3.51,4.264,3.51l1.157-1.787
				c-1.246-1.721-3.079-3.086-4.433-3.945c0.073-0.751-0.091-1.475-0.502-2.018c0.944,0.165,2.026-0.262,2.813-1.198
				c2.296,1.441,4.336,3.556,4.336,3.556l1.157-1.787c-1.287-1.777-3.196-3.171-4.561-4.025c0.046-0.71-0.126-1.388-0.516-1.904
				C204.964,340.917,206.026,340.504,206.81,339.599z"/>
		</g>
		<g>
			<path style="fill:#D69A32;" d="M395.666,398.048c-0.184-6.894-3.096-13.445-8.125-18.193l-3.055-2.884l-31.4,1.078l-31.275-1.078
				l-3.048,2.889c-5.014,4.752-7.913,11.3-8.089,18.188h-0.005v0.215c-0.003,0.149-0.012,0.298-0.012,0.447v0.031h0.012v36.366
				h85.016v-36.366v0v-0.693H395.666z"/>
			
				<linearGradient id="SVGID_00000094607448987753153000000010504570187177635757_" gradientUnits="userSpaceOnUse" x1="338.7177" y1="308.3156" x2="396.4319" y2="282.0299">
				<stop  offset="0" style="stop-color:#FFBC00"/>
				<stop  offset="1" style="stop-color:#F7EA3A"/>
			</linearGradient>
			<path style="fill:url(#SVGID_00000094607448987753153000000010504570187177635757_);" d="M367.523,254.651
				c1.709-1.7,3.978-4.647,3.987-8.318c0.036-9.62-13.146-15.813-16.527-18.48v-1.971h1.013v-2.206
				c1.655-0.696,2.821-2.324,2.821-4.231c0-2.532-2.052-4.584-4.584-4.584c-2.541,0-4.593,2.052-4.593,4.584
				c0,1.908,1.166,3.535,2.821,4.231v2.206h0.877v2.043c-3.526,2.703-16.473,8.869-16.437,18.408
				c0.009,3.436,1.989,6.229,3.644,7.974l-18.734,24.014v95.819h63.063v-95.819L367.523,254.651z M351.483,219.445
				c0-1.519,1.23-2.749,2.749-2.749c1.51,0,2.739,1.23,2.739,2.749c0,1.51-1.23,2.74-2.739,2.74
				C352.713,222.184,351.483,220.954,351.483,219.445z"/>
			<path style="fill:#FFFFFF;" d="M361.713,299.266c0.296-6.115-4.511-5.227-4.511-5.227s0.073-3.994,0-7.693
				c-0.066-3.33-3.182-5.932-3.805-6.42v-0.089c0,0-0.023,0.017-0.058,0.044c-0.035-0.027-0.058-0.044-0.058-0.044v0.089
				c-0.623,0.487-3.739,3.09-3.805,6.42c-0.073,3.698,0,7.693,0,7.693s-4.807-0.888-4.511,5.227c-2.941,0-5.326,2.384-5.326,5.326
				v9.056v13.726v9.056c0,2.941,2.384,5.326,5.326,5.326c-0.296,6.115,4.511,5.227,4.511,5.227s-0.073,3.994,0,7.693
				c0.066,3.33,3.182,5.932,3.805,6.42v0.089c0,0,0.023-0.017,0.058-0.044c0.035,0.027,0.058,0.044,0.058,0.044v-0.089
				c0.622-0.487,3.739-3.09,3.805-6.42c0.073-3.698,0-7.693,0-7.693s4.807,0.888,4.511-5.227c2.941,0,5.326-2.384,5.326-5.326
				v-9.056v-13.726v-9.056C367.038,301.651,364.654,299.266,361.713,299.266z"/>
			<path style="fill:#FFFFFF;" d="M334.043,304.595v31.834c0,2.939-2.387,5.325-5.325,5.325c0.289,6.112-4.512,5.226-4.512,5.226
				s0.072,3.996,0,7.694c-0.045,2.107-1.311,3.924-2.396,5.099V281.25c1.085,1.166,2.351,2.984,2.396,5.099
				c0.072,3.698,0,7.694,0,7.694s4.801-0.895,4.512,5.226C331.656,299.27,334.043,301.647,334.043,304.595z"/>
			<path style="fill:#FFFFFF;" d="M384.873,279.885v81.254c-0.036,0.027-0.063,0.045-0.063,0.045v-0.09
				c-0.615-0.488-3.734-3.092-3.797-6.419c-0.081-3.698,0-7.694,0-7.694s-4.81,0.886-4.512-5.226c-2.947,0-5.325-2.387-5.325-5.325
				v-31.834c0-2.948,2.378-5.325,5.325-5.325c-0.298-6.121,4.512-5.226,4.512-5.226s-0.081-3.996,0-7.694
				c0.063-3.336,3.182-5.931,3.797-6.419v-0.09C384.809,279.84,384.837,279.858,384.873,279.885z"/>
			<path style="fill:#E7B142;" d="M384.873,278.321c0,0-9.05,2.17-14.276-2.387c0,0-10.045,2.667-18.118,2.016v0.009
				c-7.911,0.75-15.94-1.872-16.374-2.016c-0.009,0-0.009-0.009-0.018-0.009c-5.226,4.557-14.276,2.387-14.276,2.387l18.734-24.014
				l5.524,0.1l6.492,0.117v-0.009l9.665,0.09l5.298,0.045L384.873,278.321z"/>
			<path style="fill:#D69A32;" d="M370.597,275.934c0,0-10.045,2.667-18.118,2.016v0.009c-7.911,0.75-15.94-1.872-16.374-2.016
				c-0.009,0-0.009-0.009-0.018-0.009l9.981-21.527h16.075l0.081,0.199L370.597,275.934z"/>
			<rect x="317.437" y="372.948" style="fill:#E7B142;" width="71.297" height="8.047"/>
		</g>
	</g>
	<g>
		<g>
			
				<linearGradient id="SVGID_00000034062984603907041970000002755858975878148225_" gradientUnits="userSpaceOnUse" x1="254.2146" y1="339.819" x2="250.7859" y2="564.3905">
				<stop  offset="0" style="stop-color:#4F80C1"/>
				<stop  offset="1" style="stop-color:#4F80C1;stop-opacity:0"/>
			</linearGradient>
			
				<ellipse style="fill:url(#SVGID_00000034062984603907041970000002755858975878148225_);" cx="252.598" cy="445.697" rx="176.428" ry="16.47"/>
			<g>
				<g>
					
						<linearGradient id="SVGID_00000113315720320349774330000010628072880779590795_" gradientUnits="userSpaceOnUse" x1="38.1428" y1="379.1316" x2="123.2026" y2="379.1316">
						<stop  offset="0" style="stop-color:#7FA0FF"/>
						<stop  offset="0.5413" style="stop-color:#388AC9"/>
						<stop  offset="1" style="stop-color:#00799E"/>
					</linearGradient>
					<path style="fill:url(#SVGID_00000113315720320349774330000010628072880779590795_);" d="M38.3,329.264
						c0,0-1.19,7.746,2.975,12.781c4.165,5.035-4.124,11.039-1.566,18.979c2.558,7.94,8.31,6.003,8.31,12.394
						c0,6.391-5.157,11.62,1.587,19.947s13.686,4.841,14.876,11.813c1.19,6.972-2.578,15.493,5.95,21.496
						c8.529,6.004,20.231,9.102,44.23,9.489c0,0,10.115-25.369,8.33-37.764c-1.785-12.394-12.495-12.394-12.694-16.461
						c-0.198-4.067,0.198-14.912-4.959-20.141c-5.157-5.229-14.082-2.905-15.47-7.165c-1.388-4.26-2.524-12.201-9.196-15.88
						c-6.671-3.68-14.605-1.356-17.183-4.841c-2.578-3.486-9.7-11.77-19.041-11.813C37.779,322.068,38.3,329.264,38.3,329.264z"/>
					<g>
						
							<path style="fill:none;stroke:#FFFFFF;stroke-width:0.5;stroke-linecap:round;stroke-linejoin:round;stroke-miterlimit:10;" d="
							M48.118,331.104c0,0,55.039,71.267,64.857,103.317"/>
						
							<line style="fill:none;stroke:#FFFFFF;stroke-width:0.5;stroke-linecap:round;stroke-linejoin:round;stroke-miterlimit:10;" x1="46.333" y1="358.991" x2="69.117" y2="359.645"/>
						
							<line style="fill:none;stroke:#FFFFFF;stroke-width:0.5;stroke-linecap:round;stroke-linejoin:round;stroke-miterlimit:10;" x1="90.365" y1="361.315" x2="83.043" y2="379.876"/>
						
							<line style="fill:none;stroke:#FFFFFF;stroke-width:0.5;stroke-linecap:round;stroke-linejoin:round;stroke-miterlimit:10;" x1="70.134" y1="404.162" x2="98.021" y2="403.603"/>
						
							<line style="fill:none;stroke:#FFFFFF;stroke-width:0.5;stroke-linecap:round;stroke-linejoin:round;stroke-miterlimit:10;" x1="113.868" y1="394.576" x2="103.973" y2="414.154"/>
					</g>
				</g>
				<g>
					<g>
						<path style="fill:#00707F;" d="M95.045,436.086c-2.163-20.257-21.635-40.761-21.831-40.965l1.565-1.504
							c0.823,0.859,20.179,21.237,22.421,42.238L95.045,436.086z"/>
					</g>
					
						<linearGradient id="SVGID_00000147916983190982046490000008575744556711898035_" gradientUnits="userSpaceOnUse" x1="57.8688" y1="392.8716" x2="87.3998" y2="392.8716">
						<stop  offset="0" style="stop-color:#FFBC00"/>
						<stop  offset="1" style="stop-color:#F7EA3A"/>
					</linearGradient>
					<path style="fill:url(#SVGID_00000147916983190982046490000008575744556711898035_);" d="M80.276,390.8
						c3.658-3.043,5.147-6.438,1.961-8.129c-2.569-1.364-5.763,1.671-8.1,4.643c-0.867-6.073-3.653-10.403-7.05-7.848
						c-2.539,1.909-0.645,6.713,1.242,10.208c-5.495-2.719-10.639-2.87-10.455,1.375c0.115,2.643,3.627,3.888,7.08,4.475
						c-3.684,3.011-5.202,6.394-2.031,8.112c2.548,1.38,5.751-1.598,8.111-4.538c0.724,5.624,3.198,9.536,6.54,7.276
						c2.474-1.673,1.163-6.101-0.423-9.605c5.442,2.578,10.462,2.637,10.244-1.555C87.256,392.573,83.733,391.358,80.276,390.8z"/>
					<path style="fill:#FFFFFF;" d="M76.235,393.043c-0.088,1.982-1.766,3.518-3.748,3.43c-1.982-0.088-3.518-1.766-3.43-3.748
						c0.088-1.982,1.766-3.518,3.748-3.43C74.787,389.383,76.323,391.061,76.235,393.043z"/>
				</g>
				<g>
					
						<linearGradient id="SVGID_00000088823507736878136370000017686820989027156413_" gradientUnits="userSpaceOnUse" x1="126.2548" y1="384.2584" x2="154.0239" y2="384.2584">
						<stop  offset="0" style="stop-color:#7FA0FF"/>
						<stop  offset="0.5413" style="stop-color:#388AC9"/>
						<stop  offset="1" style="stop-color:#00799E"/>
					</linearGradient>
					<path style="fill:url(#SVGID_00000088823507736878136370000017686820989027156413_);" d="M132.741,427.691
						c0,0-5.73-6.125-6.444-14.932c-0.714-8.808,7.845-14.989,6.425-21.94c-1.42-6.951-6.713-6.669-5.628-16.407
						c1.086-9.738,7.505-9.269,7.832-15.895c0.327-6.626-3.503-6.073-2.305-14.164c1.198-8.091,8.131-13.31,9.386-13.257
						c1.255,0.052-4.458,10.016-1.658,13.608c2.8,3.592,6.993,4.371,5.728,11.185c-1.266,6.813-6.063,10.26-1.446,16.539
						c4.617,6.279,7.884,8.151,4.125,18.658c-3.759,10.507-3.758,16.342,0.729,20.403c4.487,4.061,5.847,14.254,3.176,22.794
						C149.991,442.823,135.581,431.664,132.741,427.691z"/>
					
						<path style="fill:none;stroke:#FFFFFF;stroke-width:0.5;stroke-linecap:round;stroke-linejoin:round;stroke-miterlimit:10;" d="
						M137.091,341.025c0,0-1.76,5.095,3.257,8.738c3.828,2.78,1.465,7.682-1.133,13.886c-2.598,6.204-2.581,10.003,2.393,14.361
						c4.974,4.358,3.389,11.654,0.008,18.798c-3.381,7.143-4.684,11.239-0.429,16.548c4.255,5.309,8.8,13.924,7.871,19.896"/>
				</g>
				
					<linearGradient id="SVGID_00000138531756618411989910000004046070767217499281_" gradientUnits="userSpaceOnUse" x1="102.311" y1="388.0103" x2="139.2552" y2="388.0103">
					<stop  offset="0" style="stop-color:#FF6A83"/>
					<stop  offset="1" style="stop-color:#FFB4A9"/>
				</linearGradient>
				<path style="fill:url(#SVGID_00000138531756618411989910000004046070767217499281_);" d="M139.127,401.477
					c-4.987-2.125-9.006,1.951-11.049,4.742c-0.311-3.179-0.703-6.239-1.168-9.167c1.468-0.095,7.684-0.643,9.906-3.185
					c2.526-2.891,1.339-5.322,1.339-5.322c-6.552-1.885-10.383,5.772-11.328,7.955c-0.73-4.493-1.621-8.671-2.6-12.539
					c1.993-0.406,7.248-1.692,8.991-4.24c2.168-3.169,0.701-5.443,0.701-5.443c-6.032-0.985-8.987,5.388-10.025,8.361
					c-0.789-2.998-1.629-5.793-2.486-8.38c1.969-0.399,7.272-1.686,9.024-4.247c2.168-3.169,0.701-5.443,0.701-5.443
					c-6.188-1.01-9.138,5.723-10.102,8.585c-1.19-3.488-2.4-6.573-3.549-9.236c1.958-0.697,6.897-2.683,8.258-5.422
					c1.709-3.438-0.058-5.488-0.058-5.488c-6.077-0.14-8.133,6.507-8.762,9.617c-0.647-1.451-1.262-2.746-1.839-3.911
					c0.357-3.006,0.731-9.266-1.762-12.497c-3.357-4.349-7.243-4.407-7.243-4.407c-4.032,7.834,3.482,14.715,7.039,17.399
					c0.69,1.377,1.448,2.974,2.247,4.792c-2.051-1.235-6.065-3.348-8.767-2.791c-3.76,0.776-4.284,3.431-4.284,3.431
					c3.941,5.276,11.243,1.924,13.603,0.637c1.062,2.498,2.173,5.368,3.267,8.579c-1.919-1.528-5.436-3.977-8.086-3.806
					c-3.831,0.248-4.717,2.805-4.717,2.805c3.146,5.72,10.735,3.5,13.318,2.538c0.838,2.564,1.657,5.329,2.425,8.296
					c-1.878-1.515-5.514-4.106-8.239-3.93c-3.831,0.248-4.717,2.805-4.717,2.805c3.142,5.714,10.719,3.505,13.31,2.541
					c0.832,3.358,1.594,6.951,2.24,10.781c-1.796-1.742-4.68-4.133-7.104-4.263c-3.834-0.206-5.015,2.229-5.015,2.229
					c2.319,5.733,9.443,4.86,12.465,4.199c0.42,2.73,0.778,5.57,1.063,8.519c-1.575-1.827-3.791-3.941-5.872-4.312
					c-3.78-0.673-5.25,1.599-5.25,1.599c1.524,5.685,8.096,5.963,11.382,5.729c0.577,7.523,0.667,15.69,0.008,24.477l1.979,0.148
					c0.691-9.217,0.572-17.772-0.074-25.621c2.425,0.029,6.834-0.188,8.853-1.995C140.008,404.035,139.127,401.477,139.127,401.477z
					"/>
				<path style="fill:#00707F;" d="M95.947,440.631h79.085c0,0-5.851-10.344-13.407-12.147c-7.556-1.803-9.881,5.753-17.049,4.784
					c-7.168-0.969-9.106-8.912-19.18-8.525c-10.075,0.387-9.299,9.687-17.049,8.912c-7.75-0.775-16.855-5.037-22.668,6.975H95.947z"
					/>
			</g>
			<g>
				<g>
					<g>
						<path style="fill:#0098B8;" d="M419.435,374.813c-3.293-24.251,13.534-53.761,13.705-54.055l-2.258-1.305
							c-0.713,1.238-17.441,30.568-14.028,55.709L419.435,374.813z"/>
					</g>
					
						<linearGradient id="SVGID_00000172411918083870197560000014256851868908995729_" gradientUnits="userSpaceOnUse" x1="416.5638" y1="317.8943" x2="449.9348" y2="317.8943">
						<stop  offset="0" style="stop-color:#FF6A83"/>
						<stop  offset="1" style="stop-color:#FFB4A9"/>
					</linearGradient>
					<path style="fill:url(#SVGID_00000172411918083870197560000014256851868908995729_);" d="M423.662,317.745
						c-5.141-2.499-7.853-6.032-4.622-8.919c2.606-2.329,7.203,0.295,10.782,3.09c-0.733-7.333,1.275-13.184,5.971-11.179
						c3.51,1.498,2.679,7.646,1.482,12.264c5.63-4.75,11.587-6.403,12.591-1.398c0.625,3.116-3.115,5.577-6.974,7.253
						c5.163,2.455,7.904,5.965,4.699,8.879c-2.576,2.342-7.168-0.213-10.764-2.965c0.77,6.769-0.993,12.042-5.539,10.366
						c-3.366-1.241-3.108-6.783-2.265-11.326c-5.608,4.569-11.446,6.08-12.396,1.128
						C416.029,321.817,419.789,319.388,423.662,317.745z"/>
					<path style="fill:#FFFFFF;" d="M429.019,319.201c0.672,2.287,3.07,3.597,5.357,2.925c2.287-0.672,3.596-3.07,2.925-5.357
						c-0.672-2.287-3.07-3.596-5.357-2.925C429.657,314.516,428.348,316.914,429.019,319.201z"/>
				</g>
				<g>
					
						<linearGradient id="SVGID_00000007428315100847946180000013291309423772570299_" gradientUnits="userSpaceOnUse" x1="348.3258" y1="384.2584" x2="376.0949" y2="384.2584">
						<stop  offset="0" style="stop-color:#7FA0FF"/>
						<stop  offset="0.5413" style="stop-color:#388AC9"/>
						<stop  offset="1" style="stop-color:#00799E"/>
					</linearGradient>
					<path style="fill:url(#SVGID_00000007428315100847946180000013291309423772570299_);" d="M369.609,427.691
						c0,0,5.73-6.125,6.444-14.932c0.714-8.808-7.845-14.989-6.425-21.94c1.42-6.951,6.713-6.669,5.627-16.407
						c-1.086-9.738-7.505-9.269-7.832-15.895c-0.327-6.626,3.503-6.073,2.305-14.164c-1.198-8.091-8.131-13.31-9.386-13.257
						c-1.255,0.052,4.458,10.016,1.658,13.608c-2.8,3.592-6.993,4.371-5.728,11.185c1.266,6.813,6.063,10.26,1.446,16.539
						c-4.617,6.279-7.884,8.151-4.125,18.658c3.759,10.507,3.758,16.342-0.728,20.403c-4.487,4.061-5.847,14.254-3.176,22.794
						C352.359,442.823,366.769,431.664,369.609,427.691z"/>
					
						<path style="fill:none;stroke:#FFFFFF;stroke-width:0.5;stroke-linecap:round;stroke-linejoin:round;stroke-miterlimit:10;" d="
						M365.259,341.025c0,0,1.76,5.095-3.257,8.738c-3.828,2.78-1.465,7.682,1.133,13.886c2.598,6.204,2.581,10.003-2.393,14.361
						c-4.974,4.358-3.389,11.654-0.008,18.798c3.381,7.143,4.684,11.239,0.428,16.548c-4.255,5.309-8.8,13.924-7.871,19.896"/>
				</g>
				
					<linearGradient id="SVGID_00000060011066186806839690000002683951701073302937_" gradientUnits="userSpaceOnUse" x1="369.9995" y1="377.7265" x2="415.9553" y2="377.7265">
					<stop  offset="0" style="stop-color:#FF6A83"/>
					<stop  offset="1" style="stop-color:#FFB4A9"/>
				</linearGradient>
				<path style="fill:url(#SVGID_00000060011066186806839690000002683951701073302937_);" d="M370.157,394.451
					c6.209-2.647,11.224,2.362,13.775,5.794c0.381-3.924,0.864-7.7,1.438-11.316c-1.829-0.11-9.574-0.755-12.347-3.88
					c-3.153-3.553-1.678-6.56-1.678-6.56c8.159-2.359,12.947,7.069,14.129,9.757c0.901-5.547,2.003-10.705,3.215-15.482
					c-2.483-0.491-9.033-2.051-11.21-5.186c-2.707-3.898-0.884-6.712-0.884-6.712c7.513-1.246,11.207,6.602,12.507,10.265
					c0.977-3.703,2.018-7.155,3.082-10.351c-2.454-0.483-9.064-2.043-11.251-5.195c-2.707-3.898-0.884-6.712-0.884-6.712
					c7.707-1.278,11.396,7.015,12.603,10.54c1.476-4.31,2.978-8.122,4.403-11.413c-2.44-0.85-8.598-3.275-10.299-6.647
					c-2.135-4.233,0.062-6.771,0.062-6.771c7.571-0.204,10.145,7.987,10.935,11.821c0.803-1.794,1.567-3.394,2.283-4.834
					c-0.451-3.707-0.929-11.428,2.172-15.427c4.173-5.382,9.015-5.474,9.015-5.474c5.039,9.645-4.31,18.172-8.737,21.501
					c-0.858,1.703-1.799,3.676-2.79,5.924c2.552-1.535,7.549-4.161,10.917-3.487c4.686,0.938,5.344,4.211,5.344,4.211
					c-4.9,6.529-14.003,2.43-16.947,0.855c-1.318,3.087-2.697,6.634-4.053,10.601c2.388-1.895,6.766-4.934,10.067-4.736
					c4.774,0.287,5.882,3.437,5.882,3.437c-3.908,7.073-13.368,4.372-16.587,3.198c-1.039,3.167-2.054,6.582-3.005,10.247
					c2.337-1.878,6.862-5.094,10.258-4.89c4.773,0.287,5.882,3.437,5.882,3.437c-3.904,7.066-13.348,4.378-16.577,3.202
					c-1.03,4.147-1.972,8.583-2.77,13.312c2.234-2.159,5.823-5.122,8.843-5.295c4.776-0.273,6.253,2.724,6.253,2.724
					c-2.879,7.084-11.756,6.043-15.521,5.243c-0.518,3.37-0.959,6.876-1.307,10.516c1.959-2.262,4.716-4.882,7.308-5.35
					c4.708-0.849,6.544,1.946,6.544,1.946c-1.888,7.021-10.075,7.398-14.17,7.126c-0.705,9.284-0.8,19.361,0.037,30.197
					l-2.466,0.193c-0.878-11.368-0.747-21.923,0.043-31.61c-3.021,0.047-8.515-0.197-11.034-2.416
					C369.064,397.612,370.157,394.451,370.157,394.451z"/>
				<g>
					
						<linearGradient id="SVGID_00000139251752228411635680000004867978460763872681_" gradientUnits="userSpaceOnUse" x1="451.8539" y1="342.2799" x2="420.9968" y2="402.2799">
						<stop  offset="0" style="stop-color:#7FA0FF"/>
						<stop  offset="0.5413" style="stop-color:#388AC9"/>
						<stop  offset="1" style="stop-color:#00799E"/>
					</linearGradient>
					<path style="fill:url(#SVGID_00000139251752228411635680000004867978460763872681_);" d="M468.448,335.195
						c0,0,1.118,7.455-2.796,12.3c-3.914,4.846,3.875,10.623,1.472,18.264c-2.404,7.641-7.808,5.777-7.808,11.928
						c0,6.15,4.846,11.182-1.491,19.196c-6.336,8.014-12.859,4.659-13.978,11.369c-1.118,6.709,2.423,14.91-5.591,20.687
						c-8.014,5.777-19.01,8.759-41.56,9.132c0,0-9.505-24.414-7.827-36.342c1.677-11.928,11.741-11.928,11.928-15.841
						c0.186-3.914-0.186-14.35,4.659-19.382c4.846-5.032,13.232-2.796,14.537-6.896s2.372-11.741,8.641-15.282
						c6.269-3.541,13.723-1.305,16.146-4.659c2.423-3.355,9.114-11.327,17.891-11.368
						C468.937,328.27,468.448,335.195,468.448,335.195z"/>
					<g>
						
							<path style="fill:none;stroke:#FFFFFF;stroke-width:0.5;stroke-linecap:round;stroke-linejoin:round;stroke-miterlimit:10;" d="
							M459.222,336.966c0,0-51.717,68.584-60.943,99.428"/>
						
							<line style="fill:none;stroke:#FFFFFF;stroke-width:0.5;stroke-linecap:round;stroke-linejoin:round;stroke-miterlimit:10;" x1="460.9" y1="363.803" x2="439.491" y2="364.432"/>
						
							<line style="fill:none;stroke:#FFFFFF;stroke-width:0.5;stroke-linecap:round;stroke-linejoin:round;stroke-miterlimit:10;" x1="419.526" y1="366.04" x2="426.405" y2="383.902"/>
						
							<line style="fill:none;stroke:#FFFFFF;stroke-width:0.5;stroke-linecap:round;stroke-linejoin:round;stroke-miterlimit:10;" x1="438.535" y1="407.274" x2="412.331" y2="406.736"/>
						
							<line style="fill:none;stroke:#FFFFFF;stroke-width:0.5;stroke-linecap:round;stroke-linejoin:round;stroke-miterlimit:10;" x1="397.441" y1="398.048" x2="406.739" y2="416.89"/>
					</g>
				</g>
				<path style="fill:#00707F;" d="M406.402,440.631h-79.085c0,0,5.851-10.344,13.407-12.147s9.881,5.753,17.049,4.784
					c7.168-0.969,9.106-8.912,19.18-8.525c10.074,0.387,9.3,9.687,17.049,8.912c7.75-0.775,16.855-5.037,22.668,6.975H406.402z"/>
				<g>
					<g>
						<path style="fill:#00707F;" d="M414.096,438.954c3.674-24.197,28.133-47.77,28.38-48.004l-1.799-1.888
							c-1.033,0.987-25.348,24.415-29.156,49.5L414.096,438.954z"/>
					</g>
					
						<linearGradient id="SVGID_00000054239549501005808380000009823822991035789465_" gradientUnits="userSpaceOnUse" x1="425.4263" y1="388.2953" x2="461.1263" y2="388.2953">
						<stop  offset="0" style="stop-color:#FFBC00"/>
						<stop  offset="1" style="stop-color:#F7EA3A"/>
					</linearGradient>
					<path style="fill:url(#SVGID_00000054239549501005808380000009823822991035789465_);" d="M434.231,385.389
						c-4.229-3.846-5.835-8-1.922-9.86c3.156-1.5,6.828,2.312,9.474,6.003c1.363-7.242,4.938-12.29,8.879-9.044
						c2.946,2.427,0.417,8.091-2.033,12.185c6.74-2.971,12.922-2.879,12.475,2.206c-0.278,3.166-4.56,4.473-8.735,4.994
						c4.262,3.81,5.903,7.95,2.007,9.843c-3.131,1.521-6.817-2.224-9.493-5.878c-1.168,6.712-4.346,11.274-8.236,8.385
						c-2.88-2.139-1.071-7.384,1.018-11.505c-6.668,2.804-12.696,2.609-12.211-2.411
						C425.759,387.145,430.052,385.874,434.231,385.389z"/>
					<path style="fill:#FFFFFF;" d="M438.96,388.295c0,2.383,1.932,4.316,4.316,4.316c2.384,0,4.316-1.932,4.316-4.316
						c0-2.384-1.932-4.316-4.316-4.316C440.893,383.979,438.96,385.912,438.96,388.295z"/>
				</g>
			</g>
		</g>
		<g>
			<g>
				<g>
					<path style="fill:#85603C;" d="M407.585,385.671c0.058,1.902-0.696,3.658-2.018,5.054c-1.652,1.765-4.193,2.929-7.073,3.017
						c-5.149,0.157-9.427-3.205-9.558-7.501c-0.097-3.167,2.089-5.963,5.299-7.282c1.153-0.466,2.428-0.748,3.783-0.789
						C403.167,378.013,407.454,381.375,407.585,385.671z"/>
					<path style="fill:#A37E4E;" d="M407.585,385.671c0.058,1.902-0.696,3.658-2.018,5.054c-1.153,0.475-2.437,0.757-3.801,0.798
						c-5.149,0.157-9.426-3.196-9.558-7.501c-0.058-1.911,0.705-3.676,2.027-5.063c1.153-0.466,2.428-0.748,3.783-0.789
						C403.167,378.013,407.454,381.375,407.585,385.671z"/>
					<path style="fill:#724F2B;" d="M406.582,385.463c0.034,1.106-0.785,2.028-1.829,2.06c-1.044,0.032-1.918-0.839-1.951-1.944
						c-0.034-1.106,0.785-2.028,1.829-2.06C405.675,383.486,406.548,384.357,406.582,385.463z"/>
					<path style="fill:#5F3E1B;" d="M405.908,385.305c0.016,0.507-0.36,0.93-0.839,0.945c-0.479,0.015-0.88-0.385-0.895-0.892
						c-0.016-0.507,0.36-0.93,0.839-0.945C405.492,384.398,405.893,384.797,405.908,385.305z"/>
					<path style="fill:#BF986A;" d="M397.531,378.893c0,0,2.841-0.408,5.225,0.995c2.384,1.402-0.741,0.953-3.034,0.413
						C397.429,379.762,396.356,379.282,397.531,378.893z"/>
				</g>
				<g>
					<path style="fill:#85603C;" d="M399.442,377.095c-0.153,1.896-1.098,3.558-2.566,4.799c-1.837,1.571-4.492,2.446-7.364,2.215
						c-5.135-0.414-9.013-4.23-8.667-8.515c0.255-3.158,2.738-5.694,6.074-6.649c1.198-0.336,2.496-0.474,3.847-0.365
						C395.9,368.994,399.787,372.811,399.442,377.095z"/>
					<path style="fill:#A37E4E;" d="M399.442,377.095c-0.153,1.896-1.098,3.558-2.566,4.799c-1.198,0.344-2.506,0.482-3.866,0.372
						c-5.134-0.414-9.014-4.221-8.667-8.515c0.154-1.905,1.108-3.575,2.576-4.807c1.198-0.336,2.496-0.474,3.847-0.365
						C395.9,368.994,399.787,372.811,399.442,377.095z"/>
					<path style="fill:#724F2B;" d="M398.468,376.777c-0.089,1.103-1.005,1.929-2.046,1.845c-1.041-0.084-1.813-1.046-1.724-2.149
						c0.089-1.103,1.005-1.929,2.046-1.845C397.785,374.712,398.557,375.674,398.468,376.777z"/>
					<path style="fill:#5F3E1B;" d="M397.816,376.545c-0.041,0.506-0.461,0.885-0.939,0.846c-0.478-0.039-0.832-0.48-0.791-0.986
						c0.041-0.506,0.461-0.885,0.939-0.846C397.503,375.598,397.857,376.039,397.816,376.545z"/>
					<path style="fill:#BF986A;" d="M390.201,369.244c0,0,2.869-0.09,5.083,1.568c2.214,1.658-0.842,0.865-3.061,0.074
						C390.004,370.097,388.991,369.5,390.201,369.244z"/>
				</g>
				<g>
					<path style="fill:#85603C;" d="M414.376,400.059c-0.211,1.891-1.206,3.523-2.712,4.718c-1.885,1.514-4.565,2.308-7.428,1.989
						c-5.12-0.571-8.88-4.503-8.403-8.775c0.351-3.148,2.91-5.608,6.274-6.461c1.207-0.299,2.51-0.397,3.856-0.247
						C411.083,391.854,414.852,395.787,414.376,400.059z"/>
					<path style="fill:#A37E4E;" d="M414.376,400.059c-0.211,1.891-1.206,3.523-2.712,4.718c-1.208,0.308-2.519,0.405-3.875,0.254
						c-5.12-0.571-8.881-4.494-8.403-8.776c0.212-1.9,1.217-3.539,2.721-4.726c1.207-0.299,2.51-0.397,3.856-0.247
						C411.083,391.854,414.852,395.787,414.376,400.059z"/>
					<path style="fill:#724F2B;" d="M413.412,399.711c-0.123,1.099-1.064,1.897-2.102,1.781c-1.038-0.116-1.78-1.101-1.657-2.201
						c0.123-1.099,1.064-1.897,2.101-1.781C412.793,397.626,413.535,398.612,413.412,399.711z"/>
					<path style="fill:#5F3E1B;" d="M412.768,399.459c-0.056,0.504-0.488,0.87-0.964,0.817c-0.476-0.053-0.816-0.505-0.76-1.009
						c0.056-0.504,0.488-0.87,0.964-0.817C412.484,398.503,412.824,398.955,412.768,399.459z"/>
					<path style="fill:#BF986A;" d="M405.379,391.93c0,0,2.871-0.002,5.032,1.722c2.162,1.725-0.867,0.839-3.062-0.019
						C405.156,392.775,404.162,392.148,405.379,391.93z"/>
				</g>
				<g>
					<path style="fill:#85603C;" d="M399.467,398.201c0.058,1.902-0.696,3.658-2.018,5.054c-1.652,1.765-4.193,2.929-7.073,3.017
						c-5.149,0.157-9.427-3.205-9.558-7.501c-0.097-3.167,2.089-5.963,5.299-7.282c1.153-0.466,2.428-0.747,3.783-0.789
						C395.049,390.542,399.336,393.904,399.467,398.201z"/>
					<path style="fill:#A37E4E;" d="M399.467,398.201c0.058,1.902-0.696,3.658-2.018,5.054c-1.153,0.475-2.437,0.757-3.801,0.799
						c-5.149,0.157-9.426-3.196-9.558-7.501c-0.058-1.911,0.705-3.676,2.027-5.063c1.153-0.466,2.428-0.747,3.783-0.789
						C395.049,390.542,399.336,393.904,399.467,398.201z"/>
					<path style="fill:#724F2B;" d="M398.464,397.992c0.034,1.106-0.785,2.028-1.829,2.06c-1.044,0.032-1.918-0.839-1.951-1.944
						c-0.034-1.106,0.785-2.028,1.829-2.06C397.557,396.016,398.431,396.886,398.464,397.992z"/>
					<path style="fill:#5F3E1B;" d="M397.791,397.834c0.016,0.507-0.36,0.93-0.839,0.945c-0.479,0.015-0.88-0.385-0.895-0.892
						c-0.016-0.507,0.36-0.93,0.839-0.945C397.375,396.927,397.775,397.327,397.791,397.834z"/>
					<path style="fill:#BF986A;" d="M389.413,391.423c0,0,2.842-0.408,5.225,0.995c2.384,1.402-0.741,0.953-3.034,0.413
						C389.312,392.292,388.239,391.811,389.413,391.423z"/>
				</g>
				<g>
					<path style="fill:#85603C;" d="M391.134,387.56c0.058,1.902-0.696,3.658-2.018,5.054c-1.652,1.765-4.193,2.929-7.073,3.017
						c-5.149,0.157-9.427-3.205-9.558-7.501c-0.097-3.166,2.089-5.963,5.299-7.282c1.153-0.466,2.428-0.747,3.783-0.789
						C386.716,379.901,391.003,383.263,391.134,387.56z"/>
					<path style="fill:#A37E4E;" d="M391.134,387.56c0.058,1.902-0.696,3.658-2.018,5.054c-1.153,0.475-2.437,0.757-3.801,0.798
						c-5.149,0.157-9.426-3.196-9.558-7.501c-0.058-1.911,0.705-3.676,2.027-5.063c1.153-0.466,2.428-0.747,3.783-0.789
						C386.716,379.901,391.003,383.263,391.134,387.56z"/>
					<path style="fill:#724F2B;" d="M390.131,387.351c0.034,1.106-0.785,2.028-1.829,2.06c-1.044,0.032-1.917-0.839-1.951-1.944
						c-0.034-1.106,0.785-2.028,1.829-2.06C389.224,385.375,390.097,386.245,390.131,387.351z"/>
					<path style="fill:#5F3E1B;" d="M389.458,387.193c0.016,0.507-0.36,0.93-0.839,0.945c-0.479,0.015-0.88-0.385-0.895-0.892
						c-0.015-0.507,0.36-0.93,0.839-0.945C389.041,386.286,389.442,386.686,389.458,387.193z"/>
					<path style="fill:#BF986A;" d="M381.08,380.782c0,0,2.841-0.407,5.225,0.995c2.384,1.402-0.741,0.953-3.034,0.413
						C380.978,381.651,379.906,381.17,381.08,380.782z"/>
				</g>
				<g>
					<path style="fill:#85603C;" d="M383.929,400.083c0,1.903-0.808,3.635-2.172,4.99c-1.705,1.714-4.281,2.8-7.161,2.8
						c-5.151,0-9.324-3.491-9.324-7.79c0-3.168,2.271-5.896,5.519-7.117c1.167-0.431,2.45-0.673,3.805-0.673
						C379.747,392.294,383.929,395.785,383.929,400.083z"/>
					<path style="fill:#A37E4E;" d="M383.929,400.083c0,1.903-0.808,3.635-2.172,4.99c-1.167,0.44-2.459,0.682-3.823,0.682
						c-5.151,0-9.324-3.482-9.324-7.79c0-1.912,0.817-3.653,2.181-4.999c1.167-0.431,2.45-0.673,3.805-0.673
						C379.747,392.294,383.929,395.785,383.929,400.083z"/>
					<path style="fill:#724F2B;" d="M382.933,399.844c0,1.106-0.847,2.003-1.891,2.003c-1.044,0-1.891-0.897-1.891-2.003
						c0-1.106,0.847-2.003,1.891-2.003C382.086,397.841,382.933,398.738,382.933,399.844z"/>
					<path style="fill:#5F3E1B;" d="M382.264,399.666c0,0.508-0.388,0.919-0.867,0.919s-0.867-0.411-0.867-0.919
						c0-0.507,0.388-0.919,0.867-0.919S382.264,399.158,382.264,399.666z"/>
					<path style="fill:#BF986A;" d="M374.087,393.001c0,0,2.853-0.32,5.192,1.154c2.34,1.474-0.769,0.93-3.045,0.32
						C373.959,393.867,372.901,393.354,374.087,393.001z"/>
				</g>
			</g>
			
				<linearGradient id="SVGID_00000140001679343624061920000014121880231661236866_" gradientUnits="userSpaceOnUse" x1="389.8819" y1="376.7795" x2="390.4533" y2="431.6366">
				<stop  offset="0" style="stop-color:#85603C"/>
				<stop  offset="1" style="stop-color:#5F3E1B"/>
			</linearGradient>
			<path style="fill:url(#SVGID_00000140001679343624061920000014121880231661236866_);" d="M418.213,401.848h-24.394h-7.352
				h-24.394c0,0,2.339,20.876,11.362,29.925c2.177,2.184,4.49,3.69,6.747,4.721v4.137h20.192v-4.27
				c2.171-1.026,4.386-2.491,6.477-4.589C415.874,422.723,418.213,401.848,418.213,401.848z"/>
		</g>
	</g>
	<g>
		<g>
			<path style="fill:#D4ECFF;" d="M215.277,291.241c0,0-41.251,36.195-40.225,93.937l30.223,5.037
				C205.275,390.215,228.839,275.832,215.277,291.241z"/>
			<path style="fill:#D4ECFF;" d="M288.735,289.722c0,0,39.589,37.714,38.564,95.456l-30.224,5.037
				C297.075,390.215,275.173,274.313,288.735,289.722z"/>
			<path style="fill:#FFFFFF;" d="M301.577,380.915c-1.162-39.911-13.368-90.671-13.368-90.671
				c-2.242-3.068-17.493-4.345-29.074-4.874v-0.372c0,0-2.672,0.015-6.678,0.127c-4.005-0.112-6.677-0.127-6.677-0.127v0.372
				c-11.581,0.529-26.832,1.806-29.074,4.874c0,0-12.206,50.76-13.368,90.671c-0.796,27.342,25.684,33.951,42.442,35.403v0.246
				c0,0,2.603,0.193,6.677,0.11c4.075,0.083,6.678-0.11,6.678-0.11v-0.246C275.894,414.866,302.374,408.257,301.577,380.915z"/>
			<path style="fill:#FFCFFC;" d="M224.649,291.149c0,0-6.232,25.186-1.066,40.944c0,0,12.206,2.131,20.44,2.712l-1.808-30.482
				L224.649,291.149z"/>
			<path style="fill:#EAB5E9;" d="M289.71,290.71c0,0-0.54,1.3-1.63,3.29c-0.37,0.66-0.79,1.4-1.27,2.19
				c-0.5,0.81-1.06,1.68-1.68,2.58c-0.45,0.64-0.92,1.29-1.42,1.95c-0.66,0.86-1.37,1.73-2.14,2.6c-0.89,1.01-1.85,2-2.89,2.96
				c-0.26,0.24-0.53,0.49-0.8,0.72c-0.57,0.5-1.16,0.98-1.77,1.46c-0.09,0.06-0.18,0.13-0.27,0.2c-0.73,0.55-1.49,1.08-2.28,1.57
				c-0.04,0.02-0.07,0.05-0.11,0.07c-0.64,0.4-1.31,0.78-1.99,1.13c-0.37,0.19-0.75,0.38-1.13,0.55c-1.19,0.55-2.43,1.03-3.74,1.4
				c-0.45,0.13-0.91,0.25-1.38,0.35c-1.34,0.32-2.74,0.52-4.19,0.6c-0.44,0.03-0.88,0.05-1.33,0.05c-1.37,0.01-2.78-0.09-4.24-0.31
				c-1.07-0.16-2.13-0.36-3.17-0.6c-0.6-0.13-1.19-0.27-1.78-0.43c-1.19-0.31-2.36-0.66-3.5-1.05c-0.91-0.31-1.8-0.64-2.67-0.99
				c-2.62-1.06-5.1-2.29-7.41-3.61c-0.98-0.56-1.93-1.14-2.84-1.73c-2.92-1.87-5.53-3.85-7.77-5.75c-6.11-5.14-9.6-9.67-9.6-9.67
				c0.41-0.84,0.86-1.62,1.34-2.37c0.44-0.7,0.91-1.36,1.41-1.99c0.61-0.79,1.26-1.52,1.94-2.2c0.54-0.56,1.11-1.08,1.68-1.57
				c0.74-0.64,1.5-1.22,2.25-1.74c1.25-0.88,2.49-1.6,3.63-2.18c0.28-0.15,0.55-0.28,0.81-0.4c1.91-0.92,3.48-1.44,4.31-1.68
				c0.36-0.11,0.58-0.17,0.63-0.18c0.01,0,0.01,0,0.01,0c1.56,0.89,3.06,1.65,4.49,2.28c0.97,0.43,1.92,0.81,2.83,1.13
				c1.73,0.62,3.36,1.05,4.89,1.33c0.08,0.01,0.16,0.03,0.23,0.04c0.79,0.14,1.55,0.24,2.29,0.3c0.41,0.04,0.81,0.06,1.2,0.07
				c1.41,0.06,2.72-0.02,3.92-0.21c0.82-0.11,1.58-0.28,2.3-0.47c1.04-0.29,1.98-0.64,2.82-1.03c0.73-0.33,1.39-0.7,1.97-1.05
				c2.16-1.37,3.21-2.71,3.21-2.71c0.11,0.02,0.23,0.05,0.34,0.08c0.54,0.11,1.07,0.24,1.6,0.39c1.22,0.33,2.43,0.74,3.6,1.21
				c1.07,0.43,2.13,0.9,3.15,1.42c2.71,1.34,5.22,2.93,7.41,4.51C286.27,287.01,289.71,290.71,289.71,290.71z"/>
			<path style="opacity:0.46;fill:#E891BB;" d="M286.81,296.19c0.48-0.79,0.9-1.53,1.27-2.19l-7.11-10.37v-0.41
				c-2.19-1.58-4.7-3.17-7.41-4.51v3.17l-3.15-4.59c-1.17-0.47-2.38-0.88-3.6-1.21l1.23,1.8v5.71l-2.83-4.13v-3.77
				c-0.11-0.03-0.23-0.06-0.34-0.08c0,0-1.05,1.34-3.21,2.71l1.26,1.84v5.02l-3.23-4.71v-1.1c-0.84,0.39-1.78,0.74-2.82,1.03
				l0.54,0.78v5.71l-2.84-4.14v-1.88c-1.2,0.19-2.51,0.27-3.92,0.21l1.63,2.38v5.02l-2.83-4.14v-3.33c-0.74-0.06-1.5-0.16-2.29-0.3
				V281l-0.23-0.33c-1.53-0.28-3.16-0.71-4.89-1.33v3.25l-2.83-4.14v-0.24c-1.43-0.63-2.93-1.39-4.49-2.28c0,0,0,0-0.01,0l2.21,3.23
				v5.02l-2.84-4.14v-3.93c-0.83,0.24-2.4,0.76-4.31,1.68l2.03,2.96v5.01l-2.84-4.13v-3.44c-1.14,0.58-2.38,1.3-3.63,2.18l1.35,1.96
				v5.02l-3.6-5.24c-0.57,0.49-1.14,1.01-1.68,1.57l5.28,7.71v5.02l-7.22-10.53c-0.5,0.63-0.97,1.29-1.41,1.99l8.26,12.04
				c2.24,1.9,4.85,3.88,7.77,5.75v-3.46l2.84,4.14v1.05c2.31,1.32,4.79,2.55,7.41,3.61v-2.92l2.67,3.91
				c1.14,0.39,2.31,0.74,3.5,1.05l-1.05-1.53v-5.01l2.83,4.13v2.84c1.04,0.24,2.1,0.44,3.17,0.6c1.46,0.22,2.87,0.32,4.24,0.31v-2
				l1.33,1.95c1.45-0.08,2.85-0.28,4.19-0.6v-2.36l1.38,2.01c1.31-0.37,2.55-0.85,3.74-1.4v-2.2l1.13,1.65l0.18,0.27l1.89-1.29
				l-0.08-0.11l-3.12-4.56v-5.71l3.23,4.71v5.49c0.79-0.49,1.55-1.02,2.28-1.57v-0.58l0.27,0.38l0.08,0.12l1.89-1.29l-0.2-0.29
				l-2.04-2.97v-5.01l2.84,4.13v3.13c1.04-0.96,2-1.95,2.89-2.96l-0.6-0.87v-5.72l2.74,3.99c0.5-0.66,0.97-1.31,1.42-1.95
				l-4.16-6.08v-5.02L286.81,296.19z M231.8,303.88l-2.84-4.14v-5.01l2.84,4.13V303.88z M231.8,294.82l-2.84-4.13v-5.02l2.84,4.14
				V294.82z M236.92,302.29l-2.84-4.13v-5.02l2.84,4.14V302.29z M236.92,293.24l-2.84-4.14v-5.02l2.84,4.14V293.24z M242.04,309.77
				l-2.83-4.14v-5.02l2.83,4.14V309.77z M242.04,300.71l-2.83-4.14v-5.02l2.83,4.14V300.71z M242.04,291.65l-2.83-4.14v-5.01
				l2.83,4.13V291.65z M247.16,308.18l-2.83-4.14v-5.01l2.83,4.13V308.18z M247.16,299.12l-2.83-4.14v-5.01l2.83,4.13V299.12z
				 M247.16,290.06l-2.83-4.14v-5.01l2.83,4.14V290.06z M252.28,306.59l-2.83-4.14v-5.01l2.83,4.14V306.59z M252.28,297.53
				l-2.83-4.13v-5.02l2.83,4.14V297.53z M257.41,314.06l-2.84-4.13v-5.02l2.84,4.14V314.06z M257.41,305.01l-2.84-4.14v-5.02
				l2.84,4.14V305.01z M257.41,295.95l-2.84-4.14v-5.02l2.84,4.14V295.95z M262.92,313.05l-3.23-4.71v-5.02l3.23,4.72V313.05z
				 M262.92,303.99l-3.23-4.71v-5.01l3.23,4.71V303.99z M262.92,294.94l-3.23-4.72v-5.71l3.23,4.71V294.94z M268.04,311.47
				l-2.83-4.14v-5.02l2.83,4.14V311.47z M268.04,302.41l-2.83-4.14v-5.71l2.83,4.13V302.41z M268.04,292.65l-2.83-4.14v-5.01
				l2.83,4.14V292.65z M273.56,300.7l-3.23-4.71v-5.02l3.23,4.71V300.7z M273.56,291.64l-3.23-4.71v-5.72l3.23,4.72V291.64z
				 M278.68,299.11l-2.84-4.14v-5.71l2.84,4.14V299.11z M278.68,289.36l-2.84-4.14v-5.02l2.84,4.14V289.36z"/>
			<path style="fill:#FFCFFC;" d="M269.3,276.98c0,0-0.12,0.19-0.37,0.53c-0.32,0.44-0.88,1.12-1.68,1.9
				c-0.85,0.85-1.99,1.81-3.44,2.74c-0.31,0.2-0.63,0.4-0.96,0.59c-0.63,0.36-1.32,0.72-2.05,1.05c-0.07,0.03-0.15,0.06-0.22,0.09
				c-0.71,0.32-1.48,0.61-2.29,0.88c-0.08,0.02-0.15,0.05-0.23,0.07c-0.74,0.23-1.52,0.44-2.34,0.62c-0.09,0.02-0.17,0.04-0.26,0.05
				c-0.73,0.16-1.49,0.29-2.29,0.38c-0.18,0.03-0.36,0.05-0.54,0.07c-0.73,0.08-1.49,0.13-2.27,0.16c-0.13,0.01-0.26,0.01-0.39,0.01
				h-0.03c-0.76,0.01-1.52-0.04-2.28-0.14c-0.45-0.04-0.9-0.11-1.35-0.2c-1.29-0.23-2.56-0.59-3.78-1.02
				c-0.98-0.34-1.93-0.73-2.83-1.14c-3.24-1.48-5.91-3.28-7.41-4.38c-0.84-0.61-1.31-1.01-1.31-1.01c0.05-0.46,0.13-0.91,0.24-1.35
				c0.22-0.91,0.56-1.8,0.96-2.64c0.04-0.07,0.08-0.14,0.11-0.21c0.84-1.65,1.95-3.13,3-4.32c0.73-0.85,1.44-1.55,2.01-2.07
				c0.73-0.68,1.22-1.06,1.22-1.06c0.39,0.18,0.78,0.35,1.18,0.51c0.94,0.38,1.89,0.68,2.83,0.93c1.53,0.39,3.05,0.62,4.52,0.73
				c0.21,0.01,0.41,0.02,0.61,0.03c0.78,0.04,1.54,0.05,2.28,0.02c0.19,0,0.38,0,0.56-0.02c0.91-0.03,1.79-0.11,2.62-0.22h0.05
				c0.81-0.11,1.58-0.24,2.29-0.38c0.4-0.08,0.79-0.16,1.15-0.25c1.92-0.45,3.33-0.94,3.97-1.19c0.26-0.1,0.4-0.16,0.4-0.16
				c0.47,0.16,0.91,0.37,1.33,0.61C267.26,269.93,269.3,276.98,269.3,276.98z"/>
			
				<radialGradient id="SVGID_00000019672183201263252240000015936746848882434717_" cx="249.9058" cy="256.0717" r="35.8143" gradientUnits="userSpaceOnUse">
				<stop  offset="0.1821" style="stop-color:#FFB4A9"/>
				<stop  offset="1" style="stop-color:#FF6A83"/>
			</radialGradient>
			<path style="fill:url(#SVGID_00000019672183201263252240000015936746848882434717_);" d="M268.42,251.856
				c-1.277-1.189-2.709-0.289-3.483,0.393c-1.033-8.878-7.43-15.714-15.171-15.714c-7.68,0-14.039,6.727-15.149,15.502
				c-0.808-0.632-2.078-1.249-3.226-0.181c-2.351,2.189-1.54,7.782,1.135,9.403c1.465,0.888,2.489,1.045,3.118,1.007
				c2.324,7.282,7.771,13.341,14.121,13.341c6.359,0,11.812-6.077,14.13-13.371c0.585,0.101,1.693,0.052,3.39-0.977
				C269.96,259.638,270.771,254.045,268.42,251.856z"/>
			<path style="fill:#5F3E1B;" d="M238.12,256.072c0,0,2.973-10.05,0.878-14.266l-4.04,2.35c0,0-1.454,4.63-1.335,7.301
				C233.623,251.456,235.266,252.476,238.12,256.072z"/>
			<path style="fill:#5F3E1B;" d="M262.606,256.072c0,0-2.973-10.05-0.878-14.266l4.04,2.35c0,0,1.454,4.63,1.335,7.301
				C267.102,251.456,265.459,252.476,262.606,256.072z"/>
			<path style="fill:#FFFFFF;" d="M266.905,248.939c-0.646-14.864-12.657-16.455-16.085-16.607v-0.012c0,0-0.166-0.007-0.457-0.003
				c-0.29-0.004-0.457,0.003-0.457,0.003v0.012c-3.428,0.151-15.439,1.743-16.085,16.607c0,0,5.118-5.828,16.542-6.141
				C261.787,243.11,266.905,248.939,266.905,248.939z"/>
			<path style="fill:#EAB5E9;" d="M223.583,332.093c0,0,0.161,3.875,2.293,4.585c2.131,0.71,2.454-1.873,2.454-1.873
				s0.323,2.454,2.454,2.842c2.131,0.387,2.389-2.454,2.389-2.454s0.646,2.777,2.648,2.971c2.002,0.194,2.26-2.26,2.26-2.26
				s1.421,2.841,3.552,2.906c2.131,0.065,2.478-2.505,2.389-4.004L223.583,332.093z"/>
			<path style="fill:#0A3575;" d="M327.047,382.078c-32.137-0.245-71.028,20.753-74.59,22.715
				c-3.562-1.961-42.453-22.96-74.59-22.715c-28.07,0.214-35.261,20.149-30.999,38.361c4.262,18.212,28.286,23.636,43.398,24.411
				c12.951,0.664,51.446,0.19,62.19,0.041c10.745,0.149,49.24,0.623,62.191-0.041c15.112-0.775,39.136-6.2,43.398-24.411
				C362.308,402.227,355.117,382.292,327.047,382.078z"/>
			<path style="fill:#D882BB;" d="M214.962,291.149c0,0,10.094,19.71,35.903,24.923c30.064,6.072,41.209-22.831,41.209-22.831
				l-2.365-2.53c0,0-13.09,22.466-28.405,22.897c-27.495,0.774-44.136-24.247-44.136-24.247L214.962,291.149z"/>
		</g>
		<g>
			<path style="fill:#FFF0BE;" d="M153.847,344.099c0,0,8.747-8.896,13.203-11.995c0,0,13.616,1.671,29.965,7.943
				c22.474,8.621,52.248,30.223,52.248,30.223v11.108C249.263,381.378,154.234,350.105,153.847,344.099z"/>
			<path style="fill:#FFF0BE;" d="M348.198,344.729c0,0-9.038-9.526-13.495-12.626c0,0-13.616,1.671-29.965,7.943
				c-22.474,8.621-52.248,30.223-52.248,30.223v11.108C252.49,381.378,347.81,350.735,348.198,344.729z"/>
			<path style="fill:#D1BD9B;" d="M244.059,377.612c0,0,1.747-7.697,6.881-7.6c5.134,0.097,6.587,8.815,6.587,8.815
				s-3.294,1.55-7.459,1.55C245.903,380.377,244.059,377.612,244.059,377.612z"/>
			<path style="fill:#F2B15C;" d="M146.384,346.343l2.648-3.552c0,0,19.18,0,53.279,14.337
				c34.098,14.337,45.335,22.861,45.335,22.861l-1.292,3.294C246.355,383.283,179.966,348.733,146.384,346.343z"/>
			<path style="fill:#F2B15C;" d="M353.752,346.343l-2.648-3.552c0,0-19.18,0-53.279,14.337S252.49,379.99,252.49,379.99
				l1.292,3.294C253.781,383.283,320.17,348.733,353.752,346.343z"/>
			
				<linearGradient id="SVGID_00000164494592870415597610000005557430192913267090_" gradientUnits="userSpaceOnUse" x1="146.3844" y1="387.4034" x2="246.3547" y2="387.4034">
				<stop  offset="0" style="stop-color:#B3FF93"/>
				<stop  offset="0.6686" style="stop-color:#38A39B"/>
				<stop  offset="1" style="stop-color:#00799E"/>
			</linearGradient>
			<path style="fill:url(#SVGID_00000164494592870415597610000005557430192913267090_);" d="M146.384,346.343l19.697,56.12
				l80.273,26.02v-45.201C246.355,383.283,176.866,345.31,146.384,346.343z"/>
			
				<linearGradient id="SVGID_00000055706512768600109060000018026250469754426009_" gradientUnits="userSpaceOnUse" x1="253.7814" y1="388.3102" x2="353.7517" y2="388.3102">
				<stop  offset="0" style="stop-color:#B3FF93"/>
				<stop  offset="0.6686" style="stop-color:#38A39B"/>
				<stop  offset="1" style="stop-color:#00799E"/>
			</linearGradient>
			<path style="fill:url(#SVGID_00000055706512768600109060000018026250469754426009_);" d="M353.752,346.343l-18.728,60.447
				l-81.242,23.507v-47.014C253.781,383.283,323.27,345.31,353.752,346.343z"/>
			<rect x="246.355" y="383.283" style="fill:#F2B15C;" width="7.427" height="47.014"/>
			<polygon style="fill:#DD9E52;" points="246.355,383.283 246.921,379.473 253.216,379.473 253.781,383.283 			"/>
			<path style="fill:#BFFFD2;" d="M174.025,403.626l-12.399-37.586c0,0,5.715-1.163,6.49-6.878c0,0,42.914,14.627,62.675,25.089
				c0,0,1.356,6.975,6.587,9.3l0.917,28.286L174.025,403.626z"/>
			<path style="fill:#BFFFD2;" d="M326.279,405.176l12.399-37.586c0,0-5.715-1.162-6.49-6.878c0,0-42.914,14.628-62.675,25.09
				c0,0-1.356,6.975-6.587,9.299l-0.918,28.286L326.279,405.176z"/>
			
				<radialGradient id="SVGID_00000129184490054268516100000005950686641590989230_" cx="167" cy="407" r="324.0406" gradientUnits="userSpaceOnUse">
				<stop  offset="0" style="stop-color:#B3FF93"/>
				<stop  offset="0.6686" style="stop-color:#38A39B"/>
				<stop  offset="1" style="stop-color:#00799E"/>
			</radialGradient>
			<path style="fill:url(#SVGID_00000129184490054268516100000005950686641590989230_);" d="M218.054,407.601
				c-2.941,5.93-12.157,7.35-20.584,3.17c-8.427-4.179-12.874-12.375-9.933-18.305c2.941-5.93,12.157-7.349,20.584-3.17
				C216.548,393.475,220.995,401.671,218.054,407.601z"/>
			
				<radialGradient id="SVGID_00000155117798468854191380000017135628849818309019_" cx="167.0001" cy="407" r="324.0405" gradientUnits="userSpaceOnUse">
				<stop  offset="0" style="stop-color:#B3FF93"/>
				<stop  offset="0.6686" style="stop-color:#38A39B"/>
				<stop  offset="1" style="stop-color:#00799E"/>
			</radialGradient>
			<path style="fill:url(#SVGID_00000155117798468854191380000017135628849818309019_);" d="M283.632,409.015
				c2.941,5.93,12.157,7.35,20.584,3.17c8.427-4.179,12.874-12.375,9.933-18.305c-2.941-5.93-12.157-7.349-20.584-3.17
				C285.138,394.889,280.691,403.085,283.632,409.015z"/>
			<path style="fill:#A85B35;" d="M348.198,405.241l-1.033-9.3l-94.707,27.242l-94.707-27.242l-1.033,9.3l79.179,21.089
				c-11.609,2.356-43.711,10.266-64.971,29.025h10.85c0,0,43.592-24.928,68.294-25.057l-0.869-0.424l1.594,0.424
				c24.702,0.129,68.294,25.057,68.294,25.057h10.849c-20.004-17.651-49.608-25.697-62.707-28.548L348.198,405.241z"/>
			<path style="fill:#A37E4E;" d="M252.598,370.22c0,0,8.462,10.821,8.592,25.804l3.513-5.941l3.72,4.12
				c0,0-1.09-20.984-10.49-27.47L252.598,370.22z"/>
		</g>
	</g>
</g>
</svg>
